M48
; DRILL file {KiCad 5.1.5+dfsg1-2build2} date Wed 08 Sep 2021 05:23:56 PM EDT
; FORMAT={-:-/ absolute / inch / decimal}
; #@! TF.CreationDate,2021-09-08T17:23:56-04:00
; #@! TF.GenerationSoftware,Kicad,Pcbnew,5.1.5+dfsg1-2build2
FMAT,2
INCH
T1C0.0157
T2C0.0248
T3C0.0295
T4C0.0315
T5C0.0350
T6C0.0354
T7C0.0394
T8C0.0400
T9C0.0413
T10C0.0430
T11C0.0512
T12C0.0591
T13C0.0709
T14C0.1575
T15C0.0433
T16C0.0630
T17C0.0945
T18C0.1378
%
G90
G05
T1
X2.0945Y-4.7903
X2.0985Y-4.6604
X2.193Y-4.499
X2.3111Y-4.1958
X2.3111Y-4.9754
X2.3111Y-5.0974
X2.319Y-4.499
X2.3465Y-5.8887
X2.3465Y-5.9557
X2.3465Y-6.0226
X2.3465Y-6.0895
X2.3465Y-6.1565
X2.441Y-4.2037
X2.4414Y-6.1837
X2.4528Y-5.9557
X2.4804Y-4.6683
X2.4804Y-4.7234
X2.5001Y-5.2824
X2.5197Y-5.0935
X2.5237Y-4.9754
X2.5552Y-4.6131
X2.5552Y-4.7864
X2.563Y-6.3006
X2.563Y-6.3848
X2.5867Y-4.4045
X2.6182Y-5.2864
X2.6487Y-6.0846
X2.7127Y-4.4045
X2.7993Y-4.7824
X2.8071Y-4.6053
X2.8583Y-4.6761
X2.8583Y-4.7194
X3.2424Y-4.6889
X3.2875Y-6.1131
X3.2993Y-5.5659
X3.315Y-5.9793
X3.3416Y-5.6948
X3.3465Y-6.2509
X3.3662Y-5.4714
X3.441Y-5.436
X3.4489Y-5.7352
X3.4489Y-6.2746
X3.4528Y-5.5836
X3.4528Y-6.1151
X3.4607Y-5.9635
X3.5394Y-5.5698
X3.5512Y-5.5069
X3.5749Y-6.2628
X3.5788Y-5.995
X3.6024Y-5.7194
X3.6103Y-6.1131
X3.626Y-5.5777
X3.7773Y-2.1292
X3.8111Y-1.6525
X3.8111Y-1.7313
X3.8214Y-5.2679
X3.8436Y-2.2341
X3.8701Y-2.2864
X3.8701Y-2.3651
X3.9356Y-4.026
X3.9449Y-1.7313
X3.9489Y-1.6486
X3.9668Y-2.3241
X3.9882Y-3.1525
X4.0Y-3.6092
X4.0Y-4.2746
X4.0276Y-2.2746
X4.0315Y-2.3651
X4.0382Y-2.4183
X4.0643Y-4.3895
X4.0709Y-3.1565
X4.0748Y-5.9242
X4.0775Y-4.1101
X4.0788Y-4.2746
X4.0788Y-5.6171
X4.0788Y-5.7313
X4.0867Y-1.6486
X4.0867Y-2.1446
X4.0894Y-4.1505
X4.0906Y-1.7273
X4.0906Y-2.058
X4.1575Y-3.6092
X4.1969Y-5.7313
X4.2008Y-5.6131
X4.2008Y-5.9242
X4.2363Y-4.2785
X4.2686Y-5.4391
X4.3172Y-5.4729
X4.3229Y-4.2746
X4.3935Y-4.1759
X4.4069Y-5.3154
X4.4764Y-4.2824
X4.4764Y-5.6368
X4.5194Y-5.2135
X4.5416Y-3.9921
X4.5788Y-6.3139
X4.6018Y-4.369
X4.6024Y-4.2824
X4.6063Y-5.6328
X4.6176Y-4.9349
X4.6371Y-5.8221
X4.6615Y-6.3139
X4.68Y-2.375
X4.7059Y-3.0336
X4.7111Y-4.9961
X4.7258Y-4.117
X4.7282Y-2.9286
X4.7427Y-2.8892
X4.7473Y-3.0337
X4.7518Y-5.7911
X4.7829Y-2.4607
X4.7958Y-2.9753
X4.8027Y-4.4816
X4.8262Y-5.3581
X4.8427Y-2.1935
X4.8544Y-2.7588
X4.8544Y-2.8376
X4.8544Y-3.4478
X4.8544Y-3.5265
X4.8583Y-2.0698
X4.8583Y-2.1446
X4.8785Y-2.3878
X4.9012Y-3.6555
X4.9108Y-5.2505
X4.9158Y-4.4234
X4.9252Y-3.0751
X4.9282Y-1.9716
X4.9626Y-2.2342
X4.9703Y-5.0523
X4.9799Y-5.0917
X4.9922Y-1.9478
X4.9922Y-2.2628
X4.9922Y-2.6407
X4.9922Y-2.9557
X4.9922Y-3.3297
X4.9922Y-3.6407
X5.0001Y-4.7363
X5.0017Y-4.4435
X5.0394Y-1.9478
X5.0394Y-3.3297
X5.0394Y-3.6407
X5.0433Y-2.2628
X5.0433Y-2.6407
X5.0433Y-2.9557
X5.0439Y-2.7546
X5.0906Y-1.9478
X5.0906Y-2.2628
X5.0906Y-2.6407
X5.0906Y-2.9557
X5.0906Y-3.3297
X5.0906Y-3.6407
X5.1062Y-5.3401
X5.1197Y-2.507
X5.1378Y-3.6407
X5.1418Y-1.9478
X5.1418Y-2.2628
X5.1418Y-2.6407
X5.1418Y-2.9557
X5.1418Y-3.3297
X5.1537Y-4.0885
X5.1805Y-4.4511
X5.189Y-1.9478
X5.193Y-2.2628
X5.193Y-2.6407
X5.193Y-2.9557
X5.193Y-3.3297
X5.193Y-3.6407
X5.2046Y-3.8948
X5.2064Y-3.1913
X5.2143Y-6.4126
X5.2338Y-3.9212
X5.2361Y-4.016
X5.2402Y-1.9478
X5.2402Y-2.2628
X5.2402Y-2.6407
X5.2402Y-2.9557
X5.2402Y-3.3297
X5.2402Y-3.6407
X5.2829Y-3.8842
X5.2876Y-3.4909
X5.2914Y-1.9478
X5.2914Y-2.2628
X5.2914Y-2.6407
X5.2914Y-2.9557
X5.2914Y-3.3297
X5.2914Y-3.6407
X5.3111Y-6.2943
X5.3223Y-3.8895
X5.3292Y-4.0764
X5.3426Y-1.9478
X5.3426Y-2.2628
X5.3426Y-2.6407
X5.3426Y-2.9557
X5.3426Y-3.3336
X5.3426Y-3.6407
X5.348Y-4.5957
X5.3898Y-1.9478
X5.3898Y-2.2588
X5.3898Y-2.6407
X5.3898Y-3.3297
X5.3898Y-3.6407
X5.3937Y-2.9557
X5.3937Y-6.2943
X5.3941Y-4.8304
X5.4122Y-5.8294
X5.4185Y-4.4172
X5.4277Y-5.4566
X5.441Y-1.9478
X5.441Y-2.2628
X5.441Y-2.6407
X5.441Y-2.9557
X5.441Y-3.3297
X5.441Y-3.6407
X5.4676Y-3.7534
X5.5349Y-3.7956
X5.5365Y-1.9478
X5.5417Y-3.7146
X5.5546Y-3.1854
X5.5742Y-3.4002
X5.5748Y-6.2943
X5.5881Y-5.12
X5.6241Y-4.1862
X5.6391Y-5.0601
X5.6568Y-5.2041
X5.657Y-3.3187
X5.6627Y-4.2624
X5.6697Y-4.8518
X5.6779Y-4.3119
X5.6786Y-3.1296
X5.693Y-6.2982
X5.7017Y-5.7383
X5.7056Y-3.4054
X5.7085Y-4.2346
X5.7146Y-4.9394
X5.7218Y-3.1584
X5.7289Y-5.5814
X5.7349Y-4.9909
X5.7373Y-3.5421
X5.7454Y-5.2499
X5.7854Y-3.2037
X5.7874Y-3.5344
X5.7914Y-3.4517
X5.8135Y-3.9695
X5.8199Y-3.612
X5.8264Y-4.1698
X5.8311Y-3.3694
X5.8379Y-5.6198
X5.8616Y-5.0006
X5.8664Y-1.8134
X5.915Y-3.9518
X5.9174Y-3.6446
X5.9213Y-3.3336
X5.9439Y-5.0832
X5.9685Y-3.3336
X5.9685Y-3.6407
X5.9764Y-6.1998
X5.9843Y-6.0738
X5.9961Y-3.0187
X5.9975Y-2.8186
X6.0044Y-3.4909
X6.0119Y-5.2431
X6.0158Y-5.121
X6.0197Y-3.3336
X6.0197Y-3.6407
X6.046Y-4.4935
X6.0581Y-3.4075
X6.0592Y-2.1777
X6.0709Y-3.3336
X6.0709Y-3.6407
X6.0748Y-2.7509
X6.0779Y-6.059
X6.0788Y-2.6525
X6.0788Y-2.8415
X6.0827Y-3.0187
X6.0867Y-2.5698
X6.1024Y-6.1023
X6.1064Y-5.6681
X6.1108Y-5.5574
X6.1181Y-3.6407
X6.1221Y-3.3297
X6.1394Y-3.1296
X6.1533Y-4.9668
X6.1555Y-6.1016
X6.1651Y-3.0055
X6.1693Y-3.3336
X6.1693Y-3.6446
X6.1909Y-4.899
X6.1913Y-3.4121
X6.1943Y-5.0485
X6.1993Y-3.5846
X6.2169Y-5.5698
X6.2205Y-3.3336
X6.2205Y-3.6446
X6.2489Y-4.1724
X6.252Y-2.31
X6.2559Y-2.0659
X6.2565Y-4.3021
X6.2655Y-4.0976
X6.2717Y-3.3336
X6.2717Y-3.6446
X6.2717Y-6.0147
X6.2756Y-5.5187
X6.2756Y-5.6013
X6.2756Y-6.0935
X6.2874Y-3.1289
X6.2894Y-5.3353
X6.2896Y-2.5847
X6.2908Y-4.153
X6.2914Y-2.625
X6.2914Y-2.6722
X6.2914Y-2.7234
X6.2914Y-2.7746
X6.2914Y-2.8218
X6.2914Y-2.873
X6.2914Y-2.9242
X6.2914Y-2.9754
X6.3056Y-3.8802
X6.3064Y-5.1783
X6.3189Y-3.6446
X6.3229Y-2.495
X6.3229Y-3.3336
X6.352Y-4.1229
X6.3533Y-3.178
X6.3561Y-6.1199
X6.3565Y-5.5375
X6.3665Y-5.1052
X6.369Y-5.4191
X6.3701Y-3.3336
X6.3701Y-3.6446
X6.3864Y-5.7383
X6.3951Y-4.899
X6.4056Y-2.4872
X6.4056Y-5.4872
X6.4056Y-5.6289
X6.4056Y-5.9832
X6.4056Y-6.125
X6.4095Y-3.1328
X6.4236Y-4.3448
X6.4292Y-2.9242
X6.4292Y-2.9754
X6.4331Y-2.625
X6.4331Y-2.6722
X6.4331Y-2.7234
X6.4331Y-2.7746
X6.4331Y-2.8218
X6.437Y-2.873
X6.4528Y-5.6289
X6.4528Y-6.125
X6.4567Y-5.9832
X6.504Y-5.4872
X6.504Y-5.6289
X6.504Y-5.9832
X6.5079Y-6.125
X6.5224Y-2.8225
X6.5327Y-3.0617
X6.5355Y-2.0935
X6.5355Y-2.3139
X6.5418Y-2.9237
X6.5519Y-4.116
X6.5548Y-5.2344
X6.5552Y-5.4872
X6.5552Y-5.6289
X6.5552Y-5.9872
X6.5552Y-6.125
X6.5833Y-5.1069
X6.5921Y-1.9592
X6.6063Y-5.6289
X6.6063Y-5.9832
X6.6063Y-6.125
X6.6202Y-3.1642
X6.6203Y-2.5364
X6.6406Y-5.0218
X6.6536Y-5.6289
X6.6536Y-5.9832
X6.6536Y-6.125
X6.6735Y-1.7969
X6.7048Y-5.4872
X6.7048Y-5.6289
X6.7048Y-5.9832
X6.7048Y-6.125
X6.7126Y-1.999
X6.7166Y-1.9202
X6.7264Y-3.8802
X6.729Y-2.9767
X6.7476Y-5.5401
X6.7518Y-5.8945
X6.8138Y-5.4925
X6.8149Y-5.5843
X6.8272Y-3.9014
X6.9477Y-5.3661
X6.9731Y-5.9923
X6.982Y-3.97
X7.004Y-5.0698
X7.0246Y-5.8099
X7.0291Y-5.6065
X7.0494Y-4.507
X7.0562Y-5.1528
X7.0836Y-4.9552
X7.1523Y-2.5914
X7.2429Y-4.1335
X7.251Y-3.1356
X7.2638Y-5.1131
X7.2638Y-5.2273
X7.2957Y-4.4434
X7.3027Y-4.1621
X7.3229Y-5.9754
X7.3268Y-5.8494
X7.3372Y-3.9809
X7.3783Y-4.2904
X7.3818Y-4.1995
X7.3841Y-3.9454
X7.4285Y-3.9484
X7.4331Y-5.1131
X7.437Y-5.2313
X7.4567Y-2.6643
X7.5461Y-4.2084
X7.5827Y-2.6643
X7.6024Y-5.2313
X7.6063Y-5.1092
X7.7341Y-4.573
X7.7835Y-5.684
X7.7872Y-5.8892
X7.8205Y-5.1469
X7.8662Y-5.684
X7.8747Y-4.7511
X7.9252Y-1.0226
X7.9252Y-1.184
X7.9607Y-4.81
X7.9634Y-5.4187
X7.9711Y-5.5406
X7.972Y-5.4996
X7.9882Y-4.3572
X8.004Y-5.2824
X8.004Y-5.3612
X8.1017Y-5.1469
X8.1054Y-5.5306
X8.1463Y-4.7311
X8.1715Y-4.0992
X8.189Y-6.3415
X8.2255Y-5.475
X8.2975Y-4.4824
X8.2993Y-5.9596
X8.2993Y-6.0777
X8.3859Y-5.5771
X8.3981Y-4.8006
X8.4055Y-4.9882
X8.4107Y-4.8949
X8.4384Y-4.3901
X8.4882Y-6.3415
X8.5158Y-5.9675
X8.5158Y-6.0895
X8.6041Y-4.6661
X8.6071Y-5.2888
X8.6197Y-6.1807
X8.6432Y-5.9845
X8.6678Y-6.2448
X8.6991Y-6.1729
X8.7023Y-4.7327
X8.7211Y-4.2999
X8.7454Y-4.7949
X8.7561Y-5.1187
X8.7926Y-6.0706
X8.8141Y-4.8119
X8.8342Y-4.848
X8.836Y-5.669
X8.848Y-1.8208
X8.8552Y-3.9005
X8.8831Y-2.4842
X8.8904Y-4.9964
X8.8985Y-5.9122
X8.9005Y-5.6566
X8.9033Y-5.8729
X8.9307Y-3.7737
X8.9489Y-3.9478
X8.9489Y-4.0305
X8.9804Y-3.7221
X8.9882Y-2.3297
X8.9902Y-4.9829
X9.0293Y-5.8443
X9.0827Y-1.7631
X9.0906Y-3.7352
X9.0918Y-4.9828
X9.0945Y-3.8612
X9.0948Y-4.8772
X9.1181Y-2.3297
X9.1473Y-3.9363
X9.1733Y-3.5738
X9.1851Y-3.2352
X9.2166Y-2.5738
X9.2223Y-3.7639
X9.2559Y-3.5738
X9.2653Y-3.8934
X9.2835Y-4.0423
X9.2874Y-4.2628
X9.2993Y-2.5738
X9.3094Y-3.7577
X9.315Y-3.2391
X9.3709Y-3.4029
X9.3859Y-2.0935
X9.3898Y-2.2155
X9.3898Y-2.9793
X9.3977Y-2.4517
X9.4204Y-3.6292
X9.4331Y-2.7549
X9.4347Y-3.8219
X9.4364Y-4.9552
X9.437Y-3.4793
X9.4982Y-4.9511
X9.5119Y-2.2155
X9.5119Y-2.9793
X9.5158Y-2.0856
X9.5197Y-2.4557
X9.5197Y-2.7549
X9.5231Y-5.1461
X9.5237Y-3.4754
X9.5337Y-5.0786
X9.5788Y-6.0154
X9.5906Y-3.1171
X9.5906Y-3.3494
X9.593Y-2.9578
X9.6103Y-3.8415
X9.6103Y-3.9242
X9.6188Y-4.7936
X9.6237Y-6.0392
X9.6654Y-5.2076
X9.6654Y-5.3612
X9.6654Y-5.4084
X9.6654Y-5.5108
X9.6654Y-5.558
X9.668Y-3.0409
X9.6693Y-5.2588
X9.6693Y-5.31
X9.6693Y-5.4596
X9.6878Y-4.4142
X9.689Y-5.0108
X9.7046Y-4.467
X9.7046Y-4.9369
X9.7126Y-3.121
X9.7126Y-3.3494
X9.7205Y-1.7352
X9.7205Y-2.0502
X9.7244Y-1.6092
X9.7244Y-1.932
X9.7551Y-2.9277
X9.7678Y-2.2943
X9.7717Y-5.0108
X9.7728Y-4.0332
X9.8032Y-5.31
X9.8032Y-5.4596
X9.8071Y-5.2076
X9.8071Y-5.2588
X9.8071Y-5.3612
X9.8071Y-5.4084
X9.8071Y-5.5108
X9.8071Y-5.558
X9.8465Y-1.9202
X9.8465Y-2.0462
X9.8756Y-3.3847
X9.8926Y-4.8338
X9.8952Y-1.4771
X9.8968Y-4.7423
X9.9174Y-2.2943
X9.9623Y-5.5901
X9.9714Y-1.2684
X9.9835Y-5.7994
X10.0017Y-5.5842
X10.0197Y-1.4911
X10.0197Y-1.6171
X10.0544Y-5.8073
X10.0552Y-1.7785
X10.0552Y-1.8572
X10.0552Y-2.1328
X10.0552Y-4.1407
X10.0591Y-2.0502
X10.1339Y-1.4911
X10.1378Y-1.6092
X10.1863Y-4.4481
X10.2185Y-4.3472
X10.2559Y-1.495
X10.2559Y-1.621
X10.2975Y-4.0022
X10.3239Y-4.8923
X10.3598Y-4.5262
X10.3725Y-3.1961
X10.3798Y-2.2749
X10.3898Y-1.4714
X10.4681Y-4.0565
X10.5124Y-1.5454
X10.5394Y-1.4793
X10.6372Y-5.0867
X10.6418Y-1.6567
X10.6498Y-5.3015
X10.671Y-3.5328
X10.6751Y-2.5777
X10.6941Y-2.6277
X10.7048Y-1.4793
X10.7512Y-4.0124
X10.753Y-3.6264
X10.7593Y-3.3172
X10.7606Y-3.2479
X10.7683Y-2.7323
X10.8111Y-1.4832
X10.8797Y-4.6423
X10.8805Y-3.4684
X10.8914Y-3.1398
X10.9493Y-5.4783
X10.9528Y-1.7352
X10.9528Y-1.8572
X10.9664Y-3.9078
X10.97Y-6.1742
X10.9728Y-3.5006
X10.9742Y-4.3158
X10.9894Y-1.3234
X11.0048Y-3.2089
X11.0105Y-5.027
X11.0119Y-5.2431
X11.0242Y-5.0678
X11.0298Y-5.1196
X11.0315Y-2.3966
X11.0315Y-2.4478
X11.0315Y-2.495
X11.0315Y-2.5462
X11.0315Y-2.5974
X11.0315Y-2.6486
X11.0315Y-2.6958
X11.0315Y-2.747
X11.0315Y-2.7982
X11.0315Y-2.8454
X11.0385Y-3.0656
X11.0526Y-3.3458
X11.0534Y-5.6379
X11.0552Y-6.2903
X11.0591Y-6.0423
X11.0591Y-6.1643
X11.063Y-5.7706
X11.067Y-5.684
X11.0748Y-1.4557
X11.0756Y-5.3427
X11.0788Y-1.3297
X11.0792Y-5.3825
X11.1066Y-5.5575
X11.1174Y-4.89
X11.1337Y-3.0366
X11.1733Y-5.688
X11.1733Y-6.0423
X11.1772Y-5.81
X11.1772Y-6.1643
X11.1772Y-6.2903
X11.1811Y-4.9793
X11.1811Y-5.1013
X11.1969Y-1.3336
X11.1969Y-1.4557
X11.2087Y-4.1683
X11.2126Y-4.2509
X11.2914Y-5.684
X11.2914Y-5.81
X11.2953Y-4.9754
X11.3013Y-4.442
X11.3032Y-5.0974
X11.3066Y-2.8738
X11.3124Y-4.8097
X11.3189Y-1.3376
X11.3229Y-1.4557
X11.3307Y-4.5147
X11.3347Y-2.5974
X11.3347Y-4.3887
X11.3386Y-2.3966
X11.3386Y-2.4439
X11.3386Y-2.495
X11.3386Y-2.5462
X11.3386Y-2.6486
X11.3386Y-2.6958
X11.3386Y-2.747
X11.3386Y-2.7982
X11.3386Y-2.8454
X11.3464Y-3.3172
X11.4134Y-5.688
X11.4134Y-5.8139
X11.4174Y-5.1013
X11.4213Y-3.2199
X11.4213Y-4.9793
X11.4372Y-3.1627
X11.4374Y-2.9986
X11.4449Y-1.3336
X11.4449Y-1.4557
X11.4449Y-6.3966
X11.4607Y-1.9635
X11.4698Y-2.2858
X11.4961Y-4.2549
X11.5166Y-2.5965
X11.5276Y-4.9793
X11.5315Y-5.0974
X11.5315Y-5.688
X11.5315Y-6.3966
X11.5355Y-5.8139
X11.5709Y-1.3336
X11.5709Y-1.4635
X11.6063Y-1.9635
X11.6496Y-4.9793
X11.6496Y-5.81
X11.6536Y-5.0974
X11.6536Y-5.688
X11.7205Y-4.2588
X11.7363Y-6.3927
X11.7476Y-3.7623
X11.752Y-4.5423
X11.752Y-4.621
X11.7589Y-1.4173
X11.7678Y-5.1053
X11.7678Y-5.81
X11.7717Y-4.9872
X11.7717Y-5.6919
X11.7765Y-4.0565
X11.7958Y-3.6898
X11.8189Y-1.8651
X11.8229Y-1.7785
X11.8268Y-6.4006
X11.8645Y-4.8391
X11.8671Y-3.5104
X11.9567Y-6.3809
X12.0394Y-6.3809
X12.0695Y-5.9236
X12.236Y-2.6647
X12.2696Y-2.3647
X12.2781Y-2.7569
X12.279Y-2.6
T2
X7.5217Y-6.0836
X7.6201Y-6.0836
T3
X11.2087Y-5.2765
X11.2087Y-5.3265
X11.2087Y-5.3765
X9.6126Y-1.1643
X9.6626Y-1.1643
X9.7126Y-1.1643
X9.189Y-1.7509
X9.239Y-1.7509
X9.289Y-1.7509
X9.0351Y-2.9419
X9.0351Y-2.9919
X9.0351Y-3.0419
X11.6024Y-5.2765
X11.6024Y-5.3265
X11.6024Y-5.3765
X4.0536Y-3.9911
X4.1036Y-3.9911
X4.1536Y-3.9911
X11.4056Y-5.2765
X11.4056Y-5.3265
X11.4056Y-5.3765
T4
X4.1457Y-4.4635
X4.1457Y-4.5635
X4.1457Y-4.6635
X4.1457Y-4.7635
X4.1457Y-4.8635
X4.1457Y-4.9635
X4.1457Y-5.0635
X4.1457Y-5.1635
X4.1457Y-5.2635
X4.1457Y-5.3635
X4.4457Y-4.4635
X4.4457Y-4.5635
X4.4457Y-4.6635
X4.4457Y-4.7635
X4.4457Y-4.8635
X4.4457Y-4.9635
X4.4457Y-5.0635
X4.4457Y-5.1635
X4.4457Y-5.2635
X4.4457Y-5.3635
X11.5473Y-2.8937
X11.5473Y-2.9937
X11.5473Y-3.0937
X11.5473Y-3.1937
X11.5473Y-3.2937
X11.5473Y-3.3937
X11.5473Y-3.4937
X11.5473Y-3.5937
X11.5473Y-3.6937
X10.1134Y-4.5423
X10.1134Y-4.6423
X10.1134Y-4.7423
X10.1134Y-4.8423
X10.1134Y-4.9423
X10.1134Y-5.0423
X10.1134Y-5.1423
X10.1134Y-5.2423
X10.1134Y-5.3423
X10.1134Y-5.4423
X10.1134Y-5.5423
X10.1134Y-5.6423
X10.1134Y-5.7423
X10.1134Y-5.8423
X10.7134Y-4.5423
X10.7134Y-4.6423
X10.7134Y-4.7423
X10.7134Y-4.8423
X10.7134Y-4.9423
X10.7134Y-5.0423
X10.7134Y-5.1423
X10.7134Y-5.2423
X10.7134Y-5.3423
X10.7134Y-5.4423
X10.7134Y-5.5423
X10.7134Y-5.6423
X10.7134Y-5.7423
X10.7134Y-5.8423
X8.2441Y-4.6187
X8.2441Y-4.7187
X8.2441Y-4.8187
X8.2441Y-4.9187
X8.2441Y-5.0187
X8.2441Y-5.1187
X8.2441Y-5.2187
X8.2441Y-5.3187
X8.2441Y-5.4187
X8.3441Y-4.5187
X8.3441Y-4.6187
X8.3441Y-4.7187
X8.3441Y-4.8187
X8.3441Y-4.9187
X8.3441Y-5.0187
X8.3441Y-5.1187
X8.3441Y-5.2187
X8.3441Y-5.3187
X8.3441Y-5.4187
X8.3441Y-5.5187
X8.4441Y-4.5187
X8.4441Y-4.6187
X8.4441Y-5.4187
X8.4441Y-5.5187
X8.5441Y-4.5187
X8.5441Y-4.6187
X8.5441Y-5.4187
X8.5441Y-5.5187
X8.6441Y-4.5187
X8.6441Y-4.6187
X8.6441Y-5.4187
X8.6441Y-5.5187
X8.7441Y-4.5187
X8.7441Y-4.6187
X8.7441Y-5.4187
X8.7441Y-5.5187
X8.8441Y-4.5187
X8.8441Y-4.6187
X8.8441Y-5.4187
X8.8441Y-5.5187
X8.9441Y-4.5187
X8.9441Y-4.6187
X8.9441Y-5.4187
X8.9441Y-5.5187
X9.0441Y-4.5187
X9.0441Y-4.6187
X9.0441Y-5.4187
X9.0441Y-5.5187
X9.1441Y-4.5187
X9.1441Y-4.6187
X9.1441Y-4.7187
X9.1441Y-4.8187
X9.1441Y-4.9187
X9.1441Y-5.0187
X9.1441Y-5.1187
X9.1441Y-5.2187
X9.1441Y-5.3187
X9.1441Y-5.4187
X9.1441Y-5.5187
X9.2441Y-4.6187
X9.2441Y-4.7187
X9.2441Y-4.8187
X9.2441Y-4.9187
X9.2441Y-5.0187
X9.2441Y-5.1187
X9.2441Y-5.2187
X9.2441Y-5.3187
X9.2441Y-5.4187
X4.8685Y-4.3935
X4.8685Y-4.4935
X4.8685Y-4.5935
X4.8685Y-4.6935
X4.8685Y-4.7935
X4.8685Y-4.8935
X4.9685Y-4.2935
X4.9685Y-4.3935
X4.9685Y-4.4935
X4.9685Y-4.5935
X4.9685Y-4.6935
X4.9685Y-4.7935
X4.9685Y-4.8935
X4.9685Y-4.9935
X5.0685Y-4.2935
X5.0685Y-4.3935
X5.0685Y-4.8935
X5.0685Y-4.9935
X5.1685Y-4.2935
X5.1685Y-4.3935
X5.1685Y-4.8935
X5.1685Y-4.9935
X5.2685Y-4.2935
X5.2685Y-4.3935
X5.2685Y-4.8935
X5.2685Y-4.9935
X5.3685Y-4.2935
X5.3685Y-4.3935
X5.3685Y-4.8935
X5.3685Y-4.9935
X5.4685Y-4.2935
X5.4685Y-4.3935
X5.4685Y-4.4935
X5.4685Y-4.5935
X5.4685Y-4.6935
X5.4685Y-4.7935
X5.4685Y-4.8935
X5.4685Y-4.9935
X5.5685Y-4.3935
X5.5685Y-4.4935
X5.5685Y-4.5935
X5.5685Y-4.6935
X5.5685Y-4.7935
X5.5685Y-4.8935
X4.8685Y-5.3895
X4.8685Y-5.4895
X4.8685Y-5.5895
X4.8685Y-5.6895
X4.8685Y-5.7895
X4.8685Y-5.8895
X4.9685Y-5.2895
X4.9685Y-5.3895
X4.9685Y-5.4895
X4.9685Y-5.5895
X4.9685Y-5.6895
X4.9685Y-5.7895
X4.9685Y-5.8895
X4.9685Y-5.9895
X5.0685Y-5.2895
X5.0685Y-5.3895
X5.0685Y-5.8895
X5.0685Y-5.9895
X5.1685Y-5.2895
X5.1685Y-5.3895
X5.1685Y-5.8895
X5.1685Y-5.9895
X5.2685Y-5.2895
X5.2685Y-5.3895
X5.2685Y-5.8895
X5.2685Y-5.9895
X5.3685Y-5.2895
X5.3685Y-5.3895
X5.3685Y-5.8895
X5.3685Y-5.9895
X5.4685Y-5.2895
X5.4685Y-5.3895
X5.4685Y-5.4895
X5.4685Y-5.5895
X5.4685Y-5.6895
X5.4685Y-5.7895
X5.4685Y-5.8895
X5.4685Y-5.9895
X5.5685Y-5.3895
X5.5685Y-5.4895
X5.5685Y-5.5895
X5.5685Y-5.6895
X5.5685Y-5.7895
X5.5685Y-5.8895
X11.6861Y-2.8956
X11.6861Y-2.9956
X11.6861Y-3.0956
X11.6861Y-3.1956
X11.6861Y-3.2956
X11.6861Y-3.3956
X11.6861Y-3.4956
X11.6861Y-3.5956
X11.6861Y-3.6956
X11.6861Y-3.7956
X10.2244Y-1.7777
X10.2244Y-1.8777
X10.2244Y-1.9777
X10.2244Y-2.0777
X10.2244Y-2.1777
X10.2244Y-2.2777
X10.2244Y-2.3777
X10.2244Y-2.4777
X10.2244Y-2.5777
X10.2244Y-2.6777
X10.2244Y-2.7777
X10.2244Y-2.8777
X10.2244Y-2.9777
X10.2244Y-3.0777
X10.2244Y-3.1777
X10.2244Y-3.2777
X10.2244Y-3.3777
X10.2244Y-3.4777
X10.2244Y-3.5777
X10.2244Y-3.6777
X10.8244Y-1.7777
X10.8244Y-1.8777
X10.8244Y-1.9777
X10.8244Y-2.0777
X10.8244Y-2.1777
X10.8244Y-2.2777
X10.8244Y-2.3777
X10.8244Y-2.4777
X10.8244Y-2.5777
X10.8244Y-2.6777
X10.8244Y-2.7777
X10.8244Y-2.8777
X10.8244Y-2.9777
X10.8244Y-3.0777
X10.8244Y-3.1777
X10.8244Y-3.2777
X10.8244Y-3.3777
X10.8244Y-3.4777
X10.8244Y-3.5777
X10.8244Y-3.6777
X5.8386Y-1.8691
X5.937Y-1.8691
T5
X6.3825Y-1.7076
X6.712Y-1.7076
X6.1733Y-1.6098
X6.1733Y-1.9393
X4.8144Y-1.6423
X5.1439Y-1.6423
X9.7796Y-3.9681
X9.7796Y-4.2976
X5.2408Y-1.6427
X5.5703Y-1.6427
T6
X4.3457Y-1.8096
X4.3457Y-2.2096
X4.217Y-1.8096
X4.217Y-2.2096
X4.2252Y-2.3702
X4.2252Y-2.7702
X4.3556Y-2.3698
X4.3556Y-2.7698
T7
X7.813Y-5.0443
X7.813Y-5.5443
X6.2028Y-4.2553
X6.3028Y-4.2553
X6.4028Y-4.2553
X6.5028Y-4.2553
X6.6028Y-4.2553
X6.7028Y-4.2553
X6.8028Y-4.2553
X6.9028Y-4.2553
X7.0028Y-4.2553
X7.1028Y-4.2553
X7.2028Y-4.2553
X7.3028Y-4.2553
X6.0804Y-4.8025
X6.1804Y-4.8025
X6.2804Y-4.8025
X6.3804Y-4.8025
X6.4804Y-4.8025
X6.5804Y-4.8025
X6.6804Y-4.8025
X6.7804Y-4.8025
X6.8804Y-4.8025
X6.9804Y-4.8025
X7.0804Y-4.8025
X7.1804Y-4.8025
X7.2804Y-4.8025
X7.3804Y-4.8025
X7.4804Y-4.8025
X7.5804Y-4.8025
X4.5989Y-1.7383
X4.5989Y-1.8383
X4.5989Y-1.9383
X4.5989Y-2.0383
X4.5989Y-2.1383
X4.5989Y-2.2383
X4.5989Y-2.3383
X4.5989Y-2.4383
X4.5989Y-2.5383
X4.5989Y-2.6383
X4.5989Y-2.7383
X4.5989Y-2.8383
X4.5989Y-2.9383
X4.5989Y-3.0383
X4.5989Y-3.1383
X4.5989Y-3.2383
X4.5989Y-3.3383
X4.5989Y-3.4383
X4.5989Y-3.5383
X4.5989Y-3.6383
X4.5989Y-3.7383
X4.5989Y-3.8383
X4.5989Y-3.9383
X4.5989Y-4.0383
X11.5292Y-6.0446
X11.5292Y-6.1446
X11.6292Y-6.0446
X11.6292Y-6.1446
X11.7292Y-6.0446
X11.7292Y-6.1446
X11.8292Y-6.0446
X11.8292Y-6.1446
X11.9292Y-6.0446
X11.9292Y-6.1446
X6.9449Y-3.3228
X7.0449Y-3.3228
X7.1449Y-3.3228
X7.2449Y-3.3228
X10.0099Y-1.0604
X10.0099Y-1.1604
X10.1099Y-1.0604
X10.1099Y-1.1604
X10.2099Y-1.0604
X10.2099Y-1.1604
X6.0804Y-4.6092
X6.1804Y-4.6092
X6.2804Y-4.6092
X6.3804Y-4.6092
X6.4804Y-4.6092
X6.5804Y-4.6092
X6.6804Y-4.6092
X6.7804Y-4.6092
X6.8804Y-4.6092
X6.9804Y-4.6092
X7.0804Y-4.6092
X7.1804Y-4.6092
X7.2804Y-4.6092
X7.3804Y-4.6092
X7.4804Y-4.6092
X7.5804Y-4.6092
X7.6804Y-4.6092
X7.7804Y-4.6092
T8
X9.1311Y-0.7588
X9.3083Y-0.7588
T9
X7.3563Y-5.5383
X7.3563Y-5.7352
T10
X11.9405Y-2.0647
X11.9405Y-2.1647
X11.9405Y-2.2647
X11.9405Y-2.3647
X11.9405Y-2.4647
X11.9405Y-2.5647
X11.9405Y-2.6647
X11.9405Y-2.7647
X11.9405Y-2.8647
X11.9405Y-2.9647
X11.9405Y-3.0647
X11.9405Y-3.1647
X11.9405Y-3.2647
X11.9405Y-3.3647
X11.9405Y-3.4647
X11.9405Y-3.5647
X11.9405Y-3.6647
X11.9405Y-3.7647
X11.9405Y-3.8647
X11.9405Y-3.9647
X12.0965Y-2.0647
X12.0965Y-2.1647
X12.0965Y-2.2647
X12.0965Y-2.3647
X12.0965Y-2.4647
X12.0965Y-2.5647
X12.0965Y-2.6647
X12.0965Y-2.7647
X12.0965Y-2.8647
X12.0965Y-2.9647
X12.0965Y-3.0647
X12.0965Y-3.1647
X12.0965Y-3.2647
X12.0965Y-3.3647
X12.0965Y-3.4647
X12.0965Y-3.5647
X12.0965Y-3.6647
X12.0965Y-3.7647
X12.0965Y-3.8647
X12.0965Y-3.9647
T11
X5.7646Y-1.1403
X5.863Y-0.7466
X5.863Y-1.1403
X5.863Y-1.2387
X5.9615Y-0.7466
X5.9615Y-1.2387
X6.1583Y-0.7466
X6.1583Y-1.2387
X6.2567Y-0.7466
X6.2567Y-1.1403
X6.2567Y-1.2387
X6.3552Y-1.1403
X3.9536Y-1.1403
X4.052Y-0.7466
X4.052Y-1.2387
X4.1504Y-0.7466
X4.2489Y-1.1403
X4.2489Y-1.3372
X4.3473Y-0.7466
X4.4457Y-0.7466
X4.4457Y-1.2387
X4.5441Y-1.1403
X4.8591Y-1.1403
X4.9575Y-0.7466
X4.9575Y-1.2387
X5.0559Y-0.7466
X5.1544Y-1.1403
X5.1544Y-1.3372
X5.2528Y-0.7466
X5.3512Y-0.7466
X5.3512Y-1.2387
X5.4496Y-1.1403
X6.6713Y-1.1403
X6.7697Y-0.7466
X6.7697Y-1.2387
X6.8681Y-0.7466
X6.9666Y-1.1403
X7.065Y-0.7466
X7.1634Y-0.7466
X7.1634Y-1.2387
X7.2619Y-1.1403
X6.9111Y-2.1108
X7.0111Y-1.8108
X7.0711Y-2.1108
X7.5111Y-1.8108
X7.5111Y-2.1108
T12
X9.0819Y-0.8572
X9.3575Y-0.8572
T13
X3.3875Y-1.31
X3.3875Y-1.4675
X3.3875Y-1.625
X3.6237Y-1.31
X3.6237Y-1.4675
X3.6237Y-1.625
T14
X12.2815Y-1.7272
X12.2815Y-4.3022
T15
X8.5807Y-0.8651
X8.5807Y-1.062
T16
X11.0221Y-1.058
T17
X5.7646Y-0.9435
X6.3552Y-0.9435
X3.9536Y-0.9435
X4.5441Y-0.9435
X4.8591Y-0.9435
X5.4496Y-0.9435
X6.6713Y-0.9435
X7.2619Y-0.9435
T4
G00X8.3642Y-0.9537
M15
G01X8.3642Y-0.9734
M16
G05
G00X8.4036Y-0.8553
M15
G01X8.4036Y-0.875
M16
G05
G00X8.439Y-1.0521
M15
G01X8.439Y-1.0718
M16
G05
G00X8.563Y-1.1919
M15
G01X8.5433Y-1.1919
M16
G05
G00X8.6437Y-1.1742
M15
G01X8.6437Y-1.1939
M16
G05
G00X8.7028Y-1.0954
M15
G01X8.7028Y-1.1151
M16
G05
G00X8.7579Y-1.1742
M15
G01X8.7579Y-1.1939
M16
G05
G00X8.7815Y-0.8553
M15
G01X8.7815Y-0.875
M16
G05
T7
G00X10.8449Y-0.9498
M15
G01X10.8449Y-1.0088
M16
G05
G00X10.9827Y-0.7037
M15
G01X11.0615Y-0.7037
M16
G05
G00X10.9965Y-0.9399
M15
G01X11.0477Y-0.9399
M16
G05
G00X11.1993Y-0.9498
M15
G01X11.1993Y-1.0088
M16
G05
T18
G00X1.7638Y-6.558
M15
G01X1.8426Y-6.558
M16
G05
G00X12.3937Y-6.558
M15
G01X12.4725Y-6.558
M16
G05
T0
M30
