%TF.GenerationSoftware,KiCad,Pcbnew,5.1.5+dfsg1-2build2*%
%TF.CreationDate,2021-09-08T17:23:41-04:00*%
%TF.ProjectId,coco3,636f636f-332e-46b6-9963-61645f706362,1.0.0*%
%TF.SameCoordinates,Original*%
%TF.FileFunction,Other,Comment*%
%FSLAX46Y46*%
G04 Gerber Fmt 4.6, Leading zero omitted, Abs format (unit mm)*
G04 Created by KiCad (PCBNEW 5.1.5+dfsg1-2build2) date 2021-09-08 17:23:41*
%MOMM*%
%LPD*%
G04 APERTURE LIST*
%ADD10C,0.150000*%
%ADD11C,0.002000*%
G04 APERTURE END LIST*
D10*
%TO.C,H1*%
X49301400Y-166574000D02*
G75*
G03X49301400Y-166574000I-3500000J0D01*
G01*
%TO.C,H2*%
X319301000Y-166574000D02*
G75*
G03X319301000Y-166574000I-3500000J0D01*
G01*
%TD*%
%TO.C,CN1*%
D11*
X307296357Y-55089833D02*
X307302404Y-55095880D01*
X307308452Y-55114023D01*
X307308452Y-55126119D01*
X307302404Y-55144261D01*
X307290309Y-55156357D01*
X307278214Y-55162404D01*
X307254023Y-55168452D01*
X307235880Y-55168452D01*
X307211690Y-55162404D01*
X307199595Y-55156357D01*
X307187500Y-55144261D01*
X307181452Y-55126119D01*
X307181452Y-55114023D01*
X307187500Y-55095880D01*
X307193547Y-55089833D01*
X307308452Y-55017261D02*
X307302404Y-55029357D01*
X307296357Y-55035404D01*
X307284261Y-55041452D01*
X307247976Y-55041452D01*
X307235880Y-55035404D01*
X307229833Y-55029357D01*
X307223785Y-55017261D01*
X307223785Y-54999119D01*
X307229833Y-54987023D01*
X307235880Y-54980976D01*
X307247976Y-54974928D01*
X307284261Y-54974928D01*
X307296357Y-54980976D01*
X307302404Y-54987023D01*
X307308452Y-54999119D01*
X307308452Y-55017261D01*
X307223785Y-54920500D02*
X307350785Y-54920500D01*
X307229833Y-54920500D02*
X307223785Y-54908404D01*
X307223785Y-54884214D01*
X307229833Y-54872119D01*
X307235880Y-54866071D01*
X307247976Y-54860023D01*
X307284261Y-54860023D01*
X307296357Y-54866071D01*
X307302404Y-54872119D01*
X307308452Y-54884214D01*
X307308452Y-54908404D01*
X307302404Y-54920500D01*
X307223785Y-54817690D02*
X307308452Y-54787452D01*
X307223785Y-54757214D02*
X307308452Y-54787452D01*
X307338690Y-54799547D01*
X307344738Y-54805595D01*
X307350785Y-54817690D01*
X307308452Y-54708833D02*
X307223785Y-54708833D01*
X307247976Y-54708833D02*
X307235880Y-54702785D01*
X307229833Y-54696738D01*
X307223785Y-54684642D01*
X307223785Y-54672547D01*
X307308452Y-54630214D02*
X307223785Y-54630214D01*
X307181452Y-54630214D02*
X307187500Y-54636261D01*
X307193547Y-54630214D01*
X307187500Y-54624166D01*
X307181452Y-54630214D01*
X307193547Y-54630214D01*
X307223785Y-54515309D02*
X307326595Y-54515309D01*
X307338690Y-54521357D01*
X307344738Y-54527404D01*
X307350785Y-54539500D01*
X307350785Y-54557642D01*
X307344738Y-54569738D01*
X307302404Y-54515309D02*
X307308452Y-54527404D01*
X307308452Y-54551595D01*
X307302404Y-54563690D01*
X307296357Y-54569738D01*
X307284261Y-54575785D01*
X307247976Y-54575785D01*
X307235880Y-54569738D01*
X307229833Y-54563690D01*
X307223785Y-54551595D01*
X307223785Y-54527404D01*
X307229833Y-54515309D01*
X307308452Y-54454833D02*
X307181452Y-54454833D01*
X307308452Y-54400404D02*
X307241928Y-54400404D01*
X307229833Y-54406452D01*
X307223785Y-54418547D01*
X307223785Y-54436690D01*
X307229833Y-54448785D01*
X307235880Y-54454833D01*
X307223785Y-54358071D02*
X307223785Y-54309690D01*
X307181452Y-54339928D02*
X307290309Y-54339928D01*
X307302404Y-54333880D01*
X307308452Y-54321785D01*
X307308452Y-54309690D01*
X307193547Y-54176642D02*
X307187500Y-54170595D01*
X307181452Y-54158500D01*
X307181452Y-54128261D01*
X307187500Y-54116166D01*
X307193547Y-54110119D01*
X307205642Y-54104071D01*
X307217738Y-54104071D01*
X307235880Y-54110119D01*
X307308452Y-54182690D01*
X307308452Y-54104071D01*
X307181452Y-54025452D02*
X307181452Y-54013357D01*
X307187500Y-54001261D01*
X307193547Y-53995214D01*
X307205642Y-53989166D01*
X307229833Y-53983119D01*
X307260071Y-53983119D01*
X307284261Y-53989166D01*
X307296357Y-53995214D01*
X307302404Y-54001261D01*
X307308452Y-54013357D01*
X307308452Y-54025452D01*
X307302404Y-54037547D01*
X307296357Y-54043595D01*
X307284261Y-54049642D01*
X307260071Y-54055690D01*
X307229833Y-54055690D01*
X307205642Y-54049642D01*
X307193547Y-54043595D01*
X307187500Y-54037547D01*
X307181452Y-54025452D01*
X307308452Y-53862166D02*
X307308452Y-53934738D01*
X307308452Y-53898452D02*
X307181452Y-53898452D01*
X307199595Y-53910547D01*
X307211690Y-53922642D01*
X307217738Y-53934738D01*
X307181452Y-53753309D02*
X307181452Y-53777500D01*
X307187500Y-53789595D01*
X307193547Y-53795642D01*
X307211690Y-53807738D01*
X307235880Y-53813785D01*
X307284261Y-53813785D01*
X307296357Y-53807738D01*
X307302404Y-53801690D01*
X307308452Y-53789595D01*
X307308452Y-53765404D01*
X307302404Y-53753309D01*
X307296357Y-53747261D01*
X307284261Y-53741214D01*
X307254023Y-53741214D01*
X307241928Y-53747261D01*
X307235880Y-53753309D01*
X307229833Y-53765404D01*
X307229833Y-53789595D01*
X307235880Y-53801690D01*
X307241928Y-53807738D01*
X307254023Y-53813785D01*
X307272166Y-53596071D02*
X307272166Y-53535595D01*
X307308452Y-53608166D02*
X307181452Y-53565833D01*
X307308452Y-53523500D01*
X307302404Y-53426738D02*
X307308452Y-53438833D01*
X307308452Y-53463023D01*
X307302404Y-53475119D01*
X307296357Y-53481166D01*
X307284261Y-53487214D01*
X307247976Y-53487214D01*
X307235880Y-53481166D01*
X307229833Y-53475119D01*
X307223785Y-53463023D01*
X307223785Y-53438833D01*
X307229833Y-53426738D01*
X307302404Y-53317880D02*
X307308452Y-53329976D01*
X307308452Y-53354166D01*
X307302404Y-53366261D01*
X307296357Y-53372309D01*
X307284261Y-53378357D01*
X307247976Y-53378357D01*
X307235880Y-53372309D01*
X307229833Y-53366261D01*
X307223785Y-53354166D01*
X307223785Y-53329976D01*
X307229833Y-53317880D01*
X307302404Y-53215071D02*
X307308452Y-53227166D01*
X307308452Y-53251357D01*
X307302404Y-53263452D01*
X307290309Y-53269500D01*
X307241928Y-53269500D01*
X307229833Y-53263452D01*
X307223785Y-53251357D01*
X307223785Y-53227166D01*
X307229833Y-53215071D01*
X307241928Y-53209023D01*
X307254023Y-53209023D01*
X307266119Y-53269500D01*
X307308452Y-53136452D02*
X307302404Y-53148547D01*
X307290309Y-53154595D01*
X307181452Y-53154595D01*
X307302404Y-53039690D02*
X307308452Y-53051785D01*
X307308452Y-53075976D01*
X307302404Y-53088071D01*
X307290309Y-53094119D01*
X307241928Y-53094119D01*
X307229833Y-53088071D01*
X307223785Y-53075976D01*
X307223785Y-53051785D01*
X307229833Y-53039690D01*
X307241928Y-53033642D01*
X307254023Y-53033642D01*
X307266119Y-53094119D01*
X307308452Y-52979214D02*
X307223785Y-52979214D01*
X307247976Y-52979214D02*
X307235880Y-52973166D01*
X307229833Y-52967119D01*
X307223785Y-52955023D01*
X307223785Y-52942928D01*
X307308452Y-52846166D02*
X307241928Y-52846166D01*
X307229833Y-52852214D01*
X307223785Y-52864309D01*
X307223785Y-52888500D01*
X307229833Y-52900595D01*
X307302404Y-52846166D02*
X307308452Y-52858261D01*
X307308452Y-52888500D01*
X307302404Y-52900595D01*
X307290309Y-52906642D01*
X307278214Y-52906642D01*
X307266119Y-52900595D01*
X307260071Y-52888500D01*
X307260071Y-52858261D01*
X307254023Y-52846166D01*
X307223785Y-52803833D02*
X307223785Y-52755452D01*
X307181452Y-52785690D02*
X307290309Y-52785690D01*
X307302404Y-52779642D01*
X307308452Y-52767547D01*
X307308452Y-52755452D01*
X307302404Y-52664738D02*
X307308452Y-52676833D01*
X307308452Y-52701023D01*
X307302404Y-52713119D01*
X307290309Y-52719166D01*
X307241928Y-52719166D01*
X307229833Y-52713119D01*
X307223785Y-52701023D01*
X307223785Y-52676833D01*
X307229833Y-52664738D01*
X307241928Y-52658690D01*
X307254023Y-52658690D01*
X307266119Y-52719166D01*
X307308452Y-52549833D02*
X307181452Y-52549833D01*
X307302404Y-52549833D02*
X307308452Y-52561928D01*
X307308452Y-52586119D01*
X307302404Y-52598214D01*
X307296357Y-52604261D01*
X307284261Y-52610309D01*
X307247976Y-52610309D01*
X307235880Y-52604261D01*
X307229833Y-52598214D01*
X307223785Y-52586119D01*
X307223785Y-52561928D01*
X307229833Y-52549833D01*
X307308452Y-52392595D02*
X307181452Y-52392595D01*
X307181452Y-52362357D01*
X307187500Y-52344214D01*
X307199595Y-52332119D01*
X307211690Y-52326071D01*
X307235880Y-52320023D01*
X307254023Y-52320023D01*
X307278214Y-52326071D01*
X307290309Y-52332119D01*
X307302404Y-52344214D01*
X307308452Y-52362357D01*
X307308452Y-52392595D01*
X307302404Y-52217214D02*
X307308452Y-52229309D01*
X307308452Y-52253500D01*
X307302404Y-52265595D01*
X307290309Y-52271642D01*
X307241928Y-52271642D01*
X307229833Y-52265595D01*
X307223785Y-52253500D01*
X307223785Y-52229309D01*
X307229833Y-52217214D01*
X307241928Y-52211166D01*
X307254023Y-52211166D01*
X307266119Y-52271642D01*
X307302404Y-52162785D02*
X307308452Y-52150690D01*
X307308452Y-52126500D01*
X307302404Y-52114404D01*
X307290309Y-52108357D01*
X307284261Y-52108357D01*
X307272166Y-52114404D01*
X307266119Y-52126500D01*
X307266119Y-52144642D01*
X307260071Y-52156738D01*
X307247976Y-52162785D01*
X307241928Y-52162785D01*
X307229833Y-52156738D01*
X307223785Y-52144642D01*
X307223785Y-52126500D01*
X307229833Y-52114404D01*
X307308452Y-52053928D02*
X307223785Y-52053928D01*
X307181452Y-52053928D02*
X307187500Y-52059976D01*
X307193547Y-52053928D01*
X307187500Y-52047880D01*
X307181452Y-52053928D01*
X307193547Y-52053928D01*
X307223785Y-51939023D02*
X307326595Y-51939023D01*
X307338690Y-51945071D01*
X307344738Y-51951119D01*
X307350785Y-51963214D01*
X307350785Y-51981357D01*
X307344738Y-51993452D01*
X307302404Y-51939023D02*
X307308452Y-51951119D01*
X307308452Y-51975309D01*
X307302404Y-51987404D01*
X307296357Y-51993452D01*
X307284261Y-51999500D01*
X307247976Y-51999500D01*
X307235880Y-51993452D01*
X307229833Y-51987404D01*
X307223785Y-51975309D01*
X307223785Y-51951119D01*
X307229833Y-51939023D01*
X307223785Y-51878547D02*
X307308452Y-51878547D01*
X307235880Y-51878547D02*
X307229833Y-51872500D01*
X307223785Y-51860404D01*
X307223785Y-51842261D01*
X307229833Y-51830166D01*
X307241928Y-51824119D01*
X307308452Y-51824119D01*
X307302404Y-51769690D02*
X307308452Y-51757595D01*
X307308452Y-51733404D01*
X307302404Y-51721309D01*
X307290309Y-51715261D01*
X307284261Y-51715261D01*
X307272166Y-51721309D01*
X307266119Y-51733404D01*
X307266119Y-51751547D01*
X307260071Y-51763642D01*
X307247976Y-51769690D01*
X307241928Y-51769690D01*
X307229833Y-51763642D01*
X307223785Y-51751547D01*
X307223785Y-51733404D01*
X307229833Y-51721309D01*
X307296357Y-51660833D02*
X307302404Y-51654785D01*
X307308452Y-51660833D01*
X307302404Y-51666880D01*
X307296357Y-51660833D01*
X307308452Y-51660833D01*
X307272166Y-51509642D02*
X307272166Y-51449166D01*
X307308452Y-51521738D02*
X307181452Y-51479404D01*
X307308452Y-51437071D01*
X307308452Y-51376595D02*
X307302404Y-51388690D01*
X307290309Y-51394738D01*
X307181452Y-51394738D01*
X307308452Y-51310071D02*
X307302404Y-51322166D01*
X307290309Y-51328214D01*
X307181452Y-51328214D01*
X307308452Y-51164928D02*
X307223785Y-51164928D01*
X307247976Y-51164928D02*
X307235880Y-51158880D01*
X307229833Y-51152833D01*
X307223785Y-51140738D01*
X307223785Y-51128642D01*
X307308452Y-51086309D02*
X307223785Y-51086309D01*
X307181452Y-51086309D02*
X307187500Y-51092357D01*
X307193547Y-51086309D01*
X307187500Y-51080261D01*
X307181452Y-51086309D01*
X307193547Y-51086309D01*
X307223785Y-50971404D02*
X307326595Y-50971404D01*
X307338690Y-50977452D01*
X307344738Y-50983500D01*
X307350785Y-50995595D01*
X307350785Y-51013738D01*
X307344738Y-51025833D01*
X307302404Y-50971404D02*
X307308452Y-50983500D01*
X307308452Y-51007690D01*
X307302404Y-51019785D01*
X307296357Y-51025833D01*
X307284261Y-51031880D01*
X307247976Y-51031880D01*
X307235880Y-51025833D01*
X307229833Y-51019785D01*
X307223785Y-51007690D01*
X307223785Y-50983500D01*
X307229833Y-50971404D01*
X307308452Y-50910928D02*
X307181452Y-50910928D01*
X307308452Y-50856500D02*
X307241928Y-50856500D01*
X307229833Y-50862547D01*
X307223785Y-50874642D01*
X307223785Y-50892785D01*
X307229833Y-50904880D01*
X307235880Y-50910928D01*
X307223785Y-50814166D02*
X307223785Y-50765785D01*
X307181452Y-50796023D02*
X307290309Y-50796023D01*
X307302404Y-50789976D01*
X307308452Y-50777880D01*
X307308452Y-50765785D01*
X307302404Y-50729500D02*
X307308452Y-50717404D01*
X307308452Y-50693214D01*
X307302404Y-50681119D01*
X307290309Y-50675071D01*
X307284261Y-50675071D01*
X307272166Y-50681119D01*
X307266119Y-50693214D01*
X307266119Y-50711357D01*
X307260071Y-50723452D01*
X307247976Y-50729500D01*
X307241928Y-50729500D01*
X307229833Y-50723452D01*
X307223785Y-50711357D01*
X307223785Y-50693214D01*
X307229833Y-50681119D01*
X307308452Y-50523880D02*
X307223785Y-50523880D01*
X307247976Y-50523880D02*
X307235880Y-50517833D01*
X307229833Y-50511785D01*
X307223785Y-50499690D01*
X307223785Y-50487595D01*
X307302404Y-50396880D02*
X307308452Y-50408976D01*
X307308452Y-50433166D01*
X307302404Y-50445261D01*
X307290309Y-50451309D01*
X307241928Y-50451309D01*
X307229833Y-50445261D01*
X307223785Y-50433166D01*
X307223785Y-50408976D01*
X307229833Y-50396880D01*
X307241928Y-50390833D01*
X307254023Y-50390833D01*
X307266119Y-50451309D01*
X307302404Y-50342452D02*
X307308452Y-50330357D01*
X307308452Y-50306166D01*
X307302404Y-50294071D01*
X307290309Y-50288023D01*
X307284261Y-50288023D01*
X307272166Y-50294071D01*
X307266119Y-50306166D01*
X307266119Y-50324309D01*
X307260071Y-50336404D01*
X307247976Y-50342452D01*
X307241928Y-50342452D01*
X307229833Y-50336404D01*
X307223785Y-50324309D01*
X307223785Y-50306166D01*
X307229833Y-50294071D01*
X307302404Y-50185214D02*
X307308452Y-50197309D01*
X307308452Y-50221500D01*
X307302404Y-50233595D01*
X307290309Y-50239642D01*
X307241928Y-50239642D01*
X307229833Y-50233595D01*
X307223785Y-50221500D01*
X307223785Y-50197309D01*
X307229833Y-50185214D01*
X307241928Y-50179166D01*
X307254023Y-50179166D01*
X307266119Y-50239642D01*
X307308452Y-50124738D02*
X307223785Y-50124738D01*
X307247976Y-50124738D02*
X307235880Y-50118690D01*
X307229833Y-50112642D01*
X307223785Y-50100547D01*
X307223785Y-50088452D01*
X307223785Y-50058214D02*
X307308452Y-50027976D01*
X307223785Y-49997738D01*
X307302404Y-49900976D02*
X307308452Y-49913071D01*
X307308452Y-49937261D01*
X307302404Y-49949357D01*
X307290309Y-49955404D01*
X307241928Y-49955404D01*
X307229833Y-49949357D01*
X307223785Y-49937261D01*
X307223785Y-49913071D01*
X307229833Y-49900976D01*
X307241928Y-49894928D01*
X307254023Y-49894928D01*
X307266119Y-49955404D01*
X307308452Y-49786071D02*
X307181452Y-49786071D01*
X307302404Y-49786071D02*
X307308452Y-49798166D01*
X307308452Y-49822357D01*
X307302404Y-49834452D01*
X307296357Y-49840500D01*
X307284261Y-49846547D01*
X307247976Y-49846547D01*
X307235880Y-49840500D01*
X307229833Y-49834452D01*
X307223785Y-49822357D01*
X307223785Y-49798166D01*
X307229833Y-49786071D01*
X307296357Y-49725595D02*
X307302404Y-49719547D01*
X307308452Y-49725595D01*
X307302404Y-49731642D01*
X307296357Y-49725595D01*
X307308452Y-49725595D01*
%TD*%
M02*
